<svg xmlns="http://www.w3.org/2000/svg" height="464pt" version="1.1" viewBox="-64 0 464 464" width="464pt">
<g id="surface1">
<path d="M 96 240 L 144 240 L 144 176 L 192 176 L 192 240 L 240 240 L 240 144 L 272 144 L 168 64 L 64 144 L 96 144 Z M 96 240 " style=" stroke:none;fill-rule:nonzero;fill:rgb(0%,36.862745%,80.784314%);fill-opacity:1;" />
<path d="M 144 176 L 192 176 L 192 240 L 144 240 Z M 144 176 " style=" stroke:none;fill-rule:nonzero;fill:rgb(74.117647%,85.882353%,100%);fill-opacity:1;" />
<path d="M 168 0 L 168 64 L 272 144 L 240 144 L 240 240 L 168 240 L 168 464 C 168 464 336 260.800781 336 168 C 336 75.214844 260.785156 0 168 0 Z M 168 0 " style=" stroke:none;fill-rule:nonzero;fill:rgb(48.627451%,72.156863%,100%);fill-opacity:1;" />
<path d="M 144 240 L 96 240 L 96 144 L 64 144 L 168 64 L 168 0 C 75.214844 0 0 75.214844 0 168 C 0 260.800781 168 464 168 464 L 168 240 Z M 144 240 " style=" stroke:none;fill-rule:nonzero;fill:rgb(34.117647%,64.313725%,100%);fill-opacity:1;" />
</g>
</svg>